{"title":"Welcome To Karachi (2015) Pre DvD Rip - XviD - [1CD] - Team IcTv","uid":11972251,"size":735413087,"categoryP":"video","categoryS":"movies","magnet":"?xt=urn:btih:ae18fafad7a12bb1911eec0602b57f10dac4e916&amp;dn=Welcome+To+Karachi+%282015%29+Pre+DvD+Rip+-+XviD+-+%5B1CD%5D+-+Team+IcTv&amp;tr=udp%3A%2F%2Ftracker.openbittorrent.com%3A80&amp;tr=udp%3A%2F%2Fopen.demonii.com%3A1337&amp;tr=udp%3A%2F%2Ftracker.coppersurfer.tk%3A6969&amp;tr=udp%3A%2F%2Fexodus.desync.com%3A6969","seeders":4,"leechers":2,"uploader":"SS132203","files":23,"time":1432883664,"description":"Welcome To Karachi (2015) Pre DvD Rip - XviD - [1CD] - Team IcTv Exclusive\n &lt;a href=&quot;\nhttp://imgsparrow.co/image/47&quot; rel=&quot;nofollow&quot; target=&quot;_NEW&quot;&gt;\nhttp://imgsparrow.co/image/47&lt;/a&gt;\n &lt;a href=&quot;\nhttp://imgsparrow.co/image/Gy&quot; rel=&quot;nofollow&quot; target=&quot;_NEW&quot;&gt;\nhttp://imgsparrow.co/image/Gy&lt;/a&gt;\n\nInfo : - \n\nAll Credit Goes To Intellect Clever &amp; IcTv\nSample Within Torrent\n\nMovie Info\nBanner : Pooja Entertainment India Ltd.\nYear : 2015\nCast : Jackky Bhagnani.Arshad Warsi.Lauren Gottlieb\nVideo: XviD\nAudio : MP3\nGenre : Comedy\nSubtitles :Nope\nResolution : 640 x 272\nRuntime : 2hr 08min XX\nSource : Team IcTv\n\nFormat : AVI\nFormat/Info : Audio Video Interleave\nFile size : 692 MiB\nDuration : 2h 8mn\nOverall bit rate : 754 Kbps\n\nVideo\nID : 0\nFormat : MPEG-4 Visual\nFormat profile : Advanced Simple@L5\nFormat settings, BVOP : 2\nFormat settings, QPel : No\nFormat settings, GMC : No warppoints\nFormat settings, Matrix : Default (H.263)\nCodec ID : XVID\nCodec ID/Hint : XviD\nDuration : 2h 8mn\nBit rate : 620 Kbps\nWidth : 640 pixels\nHeight : 272 pixels\nDisplay aspect ratio : 2.35:1\nFrame rate : 25.000 fps\nColor space : YUV\nChroma subsampling : 4:2:0\nBit depth : 8 bits\nScan type : Progressive\nCompression mode : Lossy\nBits/(Pixel*Frame) : 0.142\nStream size : 569 MiB (82%)\n\nAudio\nID : 1\nFormat : MPEG Audio\nFormat version : Version 1\nFormat profile : Layer 3\nMode : Joint stereo\nMode extension : MS Stereo\nCodec ID : 55\nCodec ID/Hint : MP3\nDuration : 2h 8mn\nBit rate mode : Constant\nBit rate : 128 Kbps\nChannel(s) : 2 channels\nSampling rate : 48.0 KHz\nCompression mode : Lossy\nStream size : 118 MiB (17%)\n\nScreens : - \n &lt;a href=&quot;\nhttp://imgsparrow.co/image/GQ&quot; rel=&quot;nofollow&quot; target=&quot;_NEW&quot;&gt;\nhttp://imgsparrow.co/image/GQ&lt;/a&gt; &lt;a href=&quot;\nhttp://imgsparrow.co/image/GZ&quot; rel=&quot;nofollow&quot; target=&quot;_NEW&quot;&gt;\nhttp://imgsparrow.co/image/GZ&lt;/a&gt; &lt;a href=&quot;\nhttp://imgsparrow.co/image/Ga&quot; rel=&quot;nofollow&quot; target=&quot;_NEW&quot;&gt;\nhttp://imgsparrow.co/image/Ga&lt;/a&gt; &lt;a href=&quot;\nhttp://imgsparrow.co/image/Gf&quot; rel=&quot;nofollow&quot; target=&quot;_NEW&quot;&gt;\nhttp://imgsparrow.co/image/Gf&lt;/a&gt; &lt;a href=&quot;\nhttp://imgsparrow.co/image/GI&quot; rel=&quot;nofollow&quot; target=&quot;_NEW&quot;&gt;\nhttp://imgsparrow.co/image/GI&lt;/a&gt; &lt;a href=&quot;\nhttp://imgsparrow.co/image/GP&quot; rel=&quot;nofollow&quot; target=&quot;_NEW&quot;&gt;\nhttp://imgsparrow.co/image/GP&lt;/a&gt; &lt;a href=&quot;\nhttp://imgsparrow.co/image/GW&quot; rel=&quot;nofollow&quot; target=&quot;_NEW&quot;&gt;\nhttp://imgsparrow.co/image/GW&lt;/a&gt; &lt;a href=&quot;\nhttp://imgsparrow.co/image/GX&quot; rel=&quot;nofollow&quot; target=&quot;_NEW&quot;&gt;\nhttp://imgsparrow.co/image/GX&lt;/a&gt; &lt;a href=&quot;\nhttp://imgsparrow.co/image/GY&quot; rel=&quot;nofollow&quot; target=&quot;_NEW&quot;&gt;\nhttp://imgsparrow.co/image/GY&lt;/a&gt; &lt;a href=&quot;\nhttp://imgsparrow.co/image/Gc&quot; rel=&quot;nofollow&quot; target=&quot;_NEW&quot;&gt;\nhttp://imgsparrow.co/image/Gc&lt;/a&gt;\n &lt;a href=&quot;\nhttp://imgsparrow.co/image/N2&quot; rel=&quot;nofollow&quot; target=&quot;_NEW&quot;&gt;\nhttp://imgsparrow.co/image/N2&lt;/a&gt;","torrent":{"xt":"urn:btih:ae18fafad7a12bb1911eec0602b57f10dac4e916","amp;dn":"Welcome+To+Karachi+%282015%29+Pre+DvD+Rip+-+XviD+-+%5B1CD%5D+-+Team+IcTv","amp;tr":["udp%3A%2F%2Ftracker.openbittorrent.com%3A80","udp%3A%2F%2Fopen.demonii.com%3A1337","udp%3A%2F%2Ftracker.coppersurfer.tk%3A6969","udp%3A%2F%2Fexodus.desync.com%3A6969"],"infoHash":"ae18fafad7a12bb1911eec0602b57f10dac4e916","infoHashBuffer":{"type":"Buffer","data":[174,24,250,250,215,161,43,177,145,30,236,6,2,181,127,16,218,196,233,22]},"announce":[],"urlList":[]}}